<?xml version="1.0" encoding="UTF-8"?>
<svg id="Layer_1" data-name="Layer 1" xmlns="http://www.w3.org/2000/svg" width="34" height="27.88" viewBox="0 0 34 27.88">
  <path d="M.9,24.16v3.01c0,.39.32.71.71.71h2.79c.39,0,.71-.32.71-.71v-2.34h-2.17c-.74,0-1.45-.24-2.04-.67Z" fill="#a7a86e"/>
  <path d="M28.89,24.83v2.34c0,.39.32.71.71.71h2.79c.39,0,.71-.32.71-.71v-3.01c-.59.43-1.3.67-2.04.67h-2.17Z" fill="#a7a86e"/>
  <path d="M.25,15.1v6.28c0,.74.3,1.44.84,1.95.5.47,1.16.74,1.85.74h28.12c.69,0,1.35-.26,1.85-.74.54-.51.84-1.21.84-1.95v-6.28c0-1.15-.29-2.28-.84-3.29l-1.43-2.6h2.01c.69,0,.69-2.49,0-2.49h-3.38l-2.81-5.12c-.48-.88-1.4-1.43-2.4-1.45l-7.9-.14-7.9.14c-1,.02-1.92.57-2.4,1.45l-2.81,5.12H.51c-.69,0-.69,2.49,0,2.49h2.01l-1.43,2.6c-.55,1.01-.84,2.14-.84,3.29ZM21.87,21.82c0,.28-.23.51-.51.51h-8.71c-.28,0-.51-.23-.51-.51v-1.29c0-.28.23-.51.51-.51h8.71c.28,0,.51.23.51.51v1.29ZM30.58,15.11c-.19.09-.39.14-.58.15l-4.06.23c-.43.03-.8-.31-.83-.74-.02-.33.17-.62.45-.76l3.68-1.73c.79-.37,1.72-.03,2.09.75.37.79.03,1.72-.75,2.09ZM7.83,2.21c.26-.48.76-.78,1.3-.78l7.87-.14,7.87.14c.54,0,1.04.31,1.3.78l4.04,7.37c.18.33-.06.73-.43.73H4.22c-.37,0-.61-.4-.43-.73L7.83,2.21ZM2.52,13.6c.05-.87.79-1.53,1.66-1.48.21.01.4.07.58.15l3.68,1.73c.39.19.56.65.38,1.05-.14.3-.45.47-.76.45l-4.06-.23c-.87-.05-1.53-.79-1.48-1.66Z" fill="#a7a86e"/>
  <path d="M14.97,1.87h4.05v1.02h-4.05v-1.02Z" fill="#a7a86e"/>
</svg>