<?xml version="1.0" encoding="UTF-8"?>
<svg id="Layer_1" data-name="Layer 1" xmlns="http://www.w3.org/2000/svg" width="22.68" height="18.84" viewBox="0 0 22.68 18.84">
  <path d="M11.67,18.75c-.2.12-.47.12-.66,0L7.83,3.9h7.01l-3.17,14.85ZM8.24,3.21L11.34.14l3.1,3.07h-6.19ZM22.42,3.09s.08.08.11.12h-6.41L19.06.12c.12.07,3.25,2.87,3.36,2.97ZM15.29,3.08l-3.11-3.08h6.05l-2.93,3.08ZM7.39,3.08L4.46,0h6.05l-3.11,3.08ZM6.56,3.21H.15s.06-.07.1-.11c0,0,0,0,0,0C.36,3,3.5.19,3.62.12l2.94,3.09ZM0,3.9h7.13l2.96,13.81L.14,4.21c-.07-.09-.12-.2-.14-.31ZM22.54,4.21l-9.94,13.5,2.95-13.81h7.13c-.02.11-.07.22-.14.31,0,0,0,0,0,0Z" fill="#fff"/>
</svg>