<?xml version="1.0" encoding="UTF-8"?>
<svg id="Layer_1" data-name="Layer 1" xmlns="http://www.w3.org/2000/svg" width="30.4" height="30.4" viewBox="0 0 30.4 30.4">
  <path d="M19.63,12.67h-8.87c-.7,0-1.27.57-1.27,1.27v7.6c0,.7.57,1.27,1.27,1.27h1.27v2.53l3.8-2.53h3.8c.7,0,1.27-.57,1.27-1.27v-7.6c0-.7-.57-1.27-1.27-1.27Z" fill="#a7a86e"/>
  <path d="M9.38,6.85l1.34,1.34c2.47-2.47,6.48-2.47,8.96,0l1.34-1.34c-3.22-3.22-8.43-3.22-11.64,0Z" fill="#a7a86e"/>
  <path d="M27.87,12.67C27.87,5.67,22.2,0,15.2,0S2.53,5.67,2.53,12.67c-1.4,0-2.53,1.13-2.53,2.53v7.6c0,1.4,1.13,2.53,2.53,2.53h3.8c.7,0,1.27-.57,1.27-1.27v-6.33c0-.7-.32-1.74-.7-2.32l-1.83-2.75c0-5.6,4.54-10.13,10.13-10.13s10.13,4.54,10.13,10.13l-1.83,2.75c-.39.58-.7,1.62-.7,2.32v6.69c-1.86,2.11-4.57,3.45-7.6,3.45h-2.53v2.53h2.53c4.14,0,7.81-2,10.12-5.07h2.55c1.4,0,2.53-1.13,2.53-2.53v-7.6c0-1.4-1.13-2.53-2.53-2.53Z" fill="#a7a86e"/>
</svg>