<?xml version="1.0" encoding="UTF-8"?>
<svg id="Layer_1" data-name="Layer 1" xmlns="http://www.w3.org/2000/svg" width="28" height="28" viewBox="0 0 28 28">
  <path d="M28,8v-3c0-.8-.32-1.56-.88-2.12-.56-.56-1.33-.88-2.12-.88h-4v-1c0-.27-.11-.52-.29-.71-.19-.19-.44-.29-.71-.29s-.52.11-.71.29c-.19.19-.29.44-.29.71v1h-10v-1c0-.27-.11-.52-.29-.71-.19-.19-.44-.29-.71-.29s-.52.11-.71.29c-.19.19-.29.44-.29.71v1H3c-.8,0-1.56.32-2.12.88-.56.56-.88,1.33-.88,2.12v3h28Z" fill="#a7a86e"/>
  <path d="M0,10v15c0,.8.32,1.56.88,2.12.56.56,1.33.88,2.12.88h22c.8,0,1.56-.32,2.12-.88.56-.56.88-1.33.88-2.12v-15H0ZM19.65,15.76l-7,6c-.19.16-.44.25-.69.24-.25,0-.49-.11-.67-.29l-3-3c-.18-.19-.28-.44-.28-.7,0-.26.11-.51.29-.7.19-.19.44-.29.7-.29.26,0,.51.1.7.28l2.35,2.35,6.3-5.4c.1-.09.22-.16.34-.2.13-.04.26-.06.39-.05s.26.04.38.1.23.14.31.24c.09.1.15.22.19.35.04.13.06.26.04.39-.01.13-.05.26-.11.38-.06.12-.15.22-.25.31h0Z" fill="#a7a86e"/>
</svg>