<?xml version="1.0" encoding="UTF-8"?>
<svg id="Layer_1" data-name="Layer 1" xmlns="http://www.w3.org/2000/svg" width="24.37" height="31.86" viewBox="0 0 24.37 31.86">
  <path d="M12.19,0C5.47,0,0,5.47,0,12.19s5.47,12.19,12.19,12.19,12.19-5.47,12.19-12.19S18.9,0,12.19,0ZM17.9,20.06l-5.72-2.71-5.72,2.71.81-6.27-4.34-4.6,6.22-1.17,3.04-5.55,3.04,5.55,6.22,1.17-4.34,4.6.81,6.27Z" fill="#a7a86e"/>
  <path d="M14.01,9.68l-1.82-3.33-1.82,3.33-3.73.7,2.6,2.76-.48,3.77,3.43-1.62,3.43,1.62-.48-3.77,2.6-2.76-3.73-.7Z" fill="#a7a86e"/>
  <path d="M3.67,27.59c.82-.12,1.61-.4,2.33-.82v-1.96c-.82-.4-1.6-.88-2.33-1.44v4.22Z" fill="#a7a86e"/>
  <path d="M18.37,26.77c.72.43,1.51.7,2.33.82v-4.22c-.73.56-1.51,1.04-2.33,1.44v1.96Z" fill="#a7a86e"/>
  <path d="M7.87,25.56v6.29c1.38-.2,2.65-.84,3.65-1.86l.67-.68.67.68c1,1.02,2.27,1.66,3.65,1.86v-6.29c-1.38.44-2.83.67-4.31.67s-2.94-.23-4.31-.67Z" fill="#a7a86e"/>
</svg>