<?xml version="1.0" encoding="UTF-8"?>
<svg id="Layer_1" data-name="Layer 1" xmlns="http://www.w3.org/2000/svg" width="33.28" height="33.04" viewBox="0 0 33.28 33.04">
  <path d="M27.25,25.67l-4.44-2.56c-.86-.5-1.98-.2-2.47.66l-.18.3c-.44.77-1.13,1.26-2,1.44-.87.18-1.69,0-2.4-.54-1.45-1.09-2.82-2.29-4.11-3.58-1.28-1.28-2.49-2.66-3.58-4.11-.53-.71-.72-1.53-.54-2.4.18-.87.67-1.55,1.44-2l.3-.18c.42-.24.72-.63.84-1.1.13-.47.06-.95-.18-1.37l-2.56-4.44c-.46-.79-1.39-1.1-2.24-.78l-.06.02c-.87.33-3.27,1.21-3.92,1.86-1.91,1.91-1.09,5.36-.24,7.56,1.49,3.85,4.32,7.55,7.22,10.45,2.9,2.9,6.6,5.73,10.45,7.22,1.33.52,2.84.93,4.28.93,1.21,0,2.41-.29,3.28-1.17.62-.62,1.53-3.09,1.86-3.93l.02-.05c.33-.84,0-1.78-.78-2.23ZM25.88,8.24c.42.15.7.55.7.99v5.06h.2c.58,0,1.06.47,1.06,1.06s-.47,1.06-1.06,1.06h-.2v1.17c0,.58-.47,1.06-1.06,1.06s-1.06-.47-1.06-1.06v-1.17h-3.98c-.41,0-.78-.24-.96-.61-.17-.37-.12-.81.14-1.12l5.03-6.11c.28-.34.75-.47,1.17-.32ZM24.47,14.29h-1.74l1.74-2.11v2.11ZM17.31,12.21c.19-.71.08-1.24-.34-1.57-.49-.39-1.3-.46-1.86-.16-.4.22-.56.58-.51,1.11.06.58-.37,1.1-.95,1.15-.58.06-1.1-.37-1.15-.95-.13-1.39.45-2.55,1.61-3.17,1.3-.71,3.02-.56,4.18.35,1.1.87,1.49,2.25,1.07,3.79-.29,1.05-1.28,1.82-2.32,2.64-.45.35-.92.72-1.35,1.12h3.07c.58,0,1.06.47,1.06,1.06s-.47,1.06-1.06,1.06h-5.22c-.36,0-.7-.19-.9-.5-.19-.31-.21-.69-.06-1.02.72-1.48,2.07-2.53,3.15-3.38.66-.52,1.48-1.16,1.58-1.53ZM33.28,13.76c0,3.68-1.43,7.13-4.03,9.73-.21.21-.48.31-.75.31s-.54-.1-.75-.31c-.41-.41-.41-1.08,0-1.49,2.2-2.2,3.41-5.12,3.41-8.24,0-6.42-5.23-11.65-11.65-11.65-3.11,0-6.04,1.21-8.24,3.41-.41.41-1.08.41-1.49,0-.41-.41-.41-1.08,0-1.49C12.39,1.43,15.84,0,19.52,0c7.59,0,13.76,6.17,13.76,13.76Z" fill="#a7a86e" fill-rule="evenodd"/>
</svg>