<?xml version="1.0" encoding="UTF-8"?>
<svg id="Layer_1" data-name="Layer 1" xmlns="http://www.w3.org/2000/svg" width="30" height="30" viewBox="0 0 30 30">
  <path d="M20.59,15c0-1.28-.05-2.57-.14-3.83h9.06c.32,1.23.49,2.52.49,3.83s-.17,2.59-.49,3.83h-9.06c.09-1.26.14-2.54.14-3.83Z" fill="#a7a86e"/>
  <path d="M18.83,15c0,1.31-.05,2.59-.14,3.83h-7.38c-.09-1.24-.14-2.52-.14-3.83s.05-2.59.14-3.83h7.38c.09,1.24.14,2.52.14,3.83Z" fill="#a7a86e"/>
  <path d="M.49,11.17h9.06c-.09,1.26-.14,2.54-.14,3.83s.05,2.57.14,3.83H.49c-.32-1.23-.49-2.52-.49-3.83s.17-2.59.49-3.83Z" fill="#a7a86e"/>
  <path d="M18.53,20.59c-.23,2-.58,3.84-1.04,5.39-.82,2.78-1.84,4.02-2.49,4.02s-1.66-1.24-2.49-4.02c-.46-1.56-.81-3.39-1.04-5.39h7.05Z" fill="#a7a86e"/>
  <path d="M11.48,9.41c.23-2,.58-3.84,1.04-5.39.82-2.78,1.84-4.02,2.49-4.02s1.66,1.24,2.49,4.02c.46,1.56.81,3.39,1.04,5.39h-7.05Z" fill="#a7a86e"/>
  <path d="M1.07,9.41c.74-1.86,1.86-3.56,3.32-5.02C6.55,2.23,9.26.81,12.19.26c-1.24,2.03-2.07,5.38-2.48,9.15H1.07Z" fill="#a7a86e"/>
  <path d="M12.19,29.74c-2.94-.55-5.64-1.97-7.8-4.13-1.46-1.46-2.58-3.16-3.32-5.02h8.64c.41,3.77,1.24,7.13,2.48,9.15Z" fill="#a7a86e"/>
  <path d="M28.93,20.59c-.74,1.86-1.86,3.56-3.32,5.02-2.16,2.16-4.86,3.58-7.8,4.13,1.24-2.03,2.07-5.38,2.48-9.15h8.64Z" fill="#a7a86e"/>
  <path d="M17.81.26c2.94.55,5.64,1.97,7.8,4.13,1.46,1.46,2.58,3.16,3.32,5.02h-8.64c-.41-3.77-1.24-7.13-2.48-9.15Z" fill="#a7a86e"/>
</svg>