<?xml version="1.0" encoding="UTF-8"?>
<svg id="Layer_1" data-name="Layer 1" xmlns="http://www.w3.org/2000/svg" width="31" height="28" xmlns:xlink="http://www.w3.org/1999/xlink" viewBox="0 0 31 28">
  <defs>
    <clipPath id="clippath">
      <rect width="31" height="28" fill="none"/>
    </clipPath>
  </defs>
  <g clip-path="url(#clippath)">
    <path d="M.05,3.8c.07-.57.21-1.14.46-1.7.25-.55.64-1.1,1.16-1.47C2.19.27,2.78.08,3.33.02c.56-.05,1.09,0,1.6.1.51.11.99.26,1.46.45.13.05.26.11.38.17h17.45c.13-.06.25-.12.38-.17.47-.19.95-.34,1.46-.45.51-.1,1.04-.15,1.6-.1.55.05,1.15.25,1.66.61.52.37.91.91,1.16,1.47.25.56.39,1.12.46,1.7.15,1.15-.02,2.32-.42,3.34-.39,1.02-1.04,1.92-1.78,2.57-.71.66-1.47,1.25-2.27,1.75-1.2.75-2.49,1.3-3.82,1.61-.99,1.91-2.38,3.93-4.33,5.98l2.9,4.53h1.32c.43,0,.78.39.78.87v2.67c0,.48-.35.87-.78.87h-13.83c-.53,0-.96-.49-.96-1.08v-2.25c0-.6.43-1.08.96-1.08h1.13l2.9-4.53c-1.95-2.04-3.34-4.05-4.32-5.96-1.35-.31-2.67-.86-3.89-1.62-.8-.5-1.56-1.09-2.27-1.75-.74-.65-1.39-1.55-1.78-2.57C.07,6.12-.09,4.95.05,3.8h0ZM26.18,10.94c.72-.57,1.39-1.21,2.01-1.91.62-.68,1.06-1.46,1.31-2.33.25-.86.28-1.78.09-2.61-.19-.85-.58-1.58-1.1-1.85-.52-.29-1.25-.24-1.98,0-.37.12-.74.29-1.1.48-.18.1-.36.2-.54.31,0,0,0,0-.01,0,.16,2.19-.05,5.75-2.1,9.82,1.23-.45,2.38-1.11,3.43-1.93h0ZM13.12,9.61l-.56,3.68,2.94-1.74,2.94,1.74-.56-3.68,2.38-2.61-3.29-.54-1.47-3.35-1.47,3.35-3.29.54,2.38,2.61ZM1.51,6.7c.25.87.69,1.65,1.31,2.33.61.7,1.28,1.35,2.01,1.91,1.06.84,2.25,1.51,3.51,1.96-2.04-4.06-2.27-7.61-2.11-9.82-.02-.02-.05-.03-.07-.05-.18-.11-.35-.22-.54-.31-.36-.2-.73-.36-1.1-.48-.74-.24-1.47-.29-1.98,0-.52.27-.91,1-1.1,1.85-.19.84-.15,1.75.09,2.61h0Z" fill="#a7a86e"/>
  </g>
</svg>