<?xml version="1.0" encoding="UTF-8"?>
<svg id="Layer_1" data-name="Layer 1" xmlns="http://www.w3.org/2000/svg" width="26" height="19.88" viewBox="0 0 26 19.88">
  <path d="M13,14.37c.52,0,.94-.99.94-2.2s-.42-2.2-.94-2.2-.94.99-.94,2.2.42,2.2.94,2.2Z" fill="#fff"/>
  <path d="M1.19,7.49s.08,0,.12,0c0,0,.01,0,.02,0,.74,0,1.34-.6,1.34-1.34,0-.74-.6-1.34-1.34-1.34C.6,4.81,0,5.41,0,6.15c0,.68.51,1.26,1.19,1.33h0Z" fill="#fff"/>
  <path d="M13,2.94c.81,0,1.47-.66,1.47-1.47s-.66-1.47-1.47-1.47-1.47.66-1.47,1.47h0c0,.81.66,1.47,1.47,1.47Z" fill="#fff"/>
  <path d="M23.12,16.91H2.88l.43,2.97h19.4l.43-2.97Z" fill="#fff"/>
  <path d="M24.66,4.82c-.74,0-1.34.6-1.34,1.34,0,.74.6,1.34,1.34,1.34,0,0,.01,0,.02,0,.04-.01.08-.01.12,0,.73-.08,1.26-.74,1.18-1.48-.07-.68-.65-1.19-1.33-1.19h0Z" fill="#fff"/>
  <path d="M2.78,16.26h20.44l1.11-7.69-5.76,4.72c-.14.11-.34.09-.46-.05-.01-.02-.02-.03-.03-.05L13,3.98l-5.08,9.21c-.05.08-.13.14-.22.16-.09.02-.19,0-.27-.07L1.67,8.57l1.11,7.69ZM13,9.32c.91,0,1.59,1.23,1.59,2.85s-.68,2.85-1.59,2.85-1.59-1.23-1.59-2.85.68-2.85,1.59-2.85Z" fill="#fff"/>
</svg>