<?xml version="1.0" encoding="UTF-8"?>
<svg id="Layer_1" data-name="Layer 1" xmlns="http://www.w3.org/2000/svg" width="33.77" height="20.24" viewBox="0 0 33.77 20.24">
  <path d="M3.3,12.04s-.1.01-.15,0c-.05,0-.1-.03-.14-.05L.18,10.18c-.09-.06-.15-.14-.17-.24-.02-.1,0-.21.05-.29L5.82.62c.06-.09.14-.15.24-.17.1-.02.21,0,.29.05l2.83,1.8c.09.06.15.14.17.25.02.1,0,.21-.05.29L3.54,11.87s-.06.08-.11.11c-.04.03-.09.05-.14.06ZM27.76,14.76c.29-.46.4-.86.32-1.22-.09-.44-.47-.87-1.11-1.28-.42-.26-1.03-.69-1.73-1.19-1.17-.84-2.63-1.87-3.9-2.6-1.92-1.1-2.28-.83-2.28-.82-2.72,2.29-4.79,3.26-6,2.79-.48-.19-.79-.59-.86-1.14-.19-1.43,1.19-3.58,3.42-5.41-.4-.43-1.04-.32-2.32,0-1.11.28-2.35.58-3.57.17l-4.64,7.27c.71,1.62,2.77,3.84,5.36,5.72,2.81,2.04,5.64,3.27,7.39,3.2.89-.03,1.46-.37,1.76-1.05l-2.19-1.55c-.11-.08-.18-.2-.21-.33-.02-.13,0-.27.09-.38.08-.11.2-.18.33-.21.13-.02.27,0,.38.09l2.46,1.75c.62.27,1.1.32,1.45.15.32-.16.57-.52.74-1.08l-3.96-2.58c-.11-.07-.19-.19-.22-.32-.03-.13,0-.27.07-.38.07-.11.19-.19.32-.22.13-.03.27,0,.38.07l4.18,2.73c.55.11.97.06,1.23-.14.22-.17.37-.48.43-.92-3.51-2.37-5.25-3.55-5.25-3.55-.11-.08-.19-.19-.21-.32-.03-.13,0-.27.08-.38.08-.11.19-.19.32-.21.13-.03.27,0,.38.08,0,0,1.8,1.22,5.42,3.66.81.16,1.44.04,1.92-.37h0ZM27.63,11.47s-.08-.05-.12-.08c-.4-.25-.99-.67-1.68-1.16-3.62-2.58-6.28-4.33-7.42-3.37-2.73,2.3-4.39,2.85-4.98,2.62-.09-.04-.19-.1-.22-.33-.11-.85.95-2.95,3.67-4.96,2.25-1.3,2.82-1.02,3.6-.63.44.21.98.48,1.81.53.77.04,1.13-.06,1.5-.17.12-.03.23-.07.37-.1l4.39,6.87c-.29.28-.6.54-.92.78h0ZM33.76,9.5c-.01.05-.03.1-.06.14-.03.04-.07.08-.11.11l-2.83,1.8c-.09.06-.19.07-.29.05-.1-.02-.19-.08-.24-.17l-5.76-9.02c-.06-.09-.07-.19-.05-.29.02-.1.08-.19.17-.25L27.41.06c.09-.06.19-.07.29-.05.1.02.19.08.24.17l5.76,9.02c.06.09.07.19.05.29Z" fill="#a7a86e" fill-rule="evenodd"/>
</svg>