<?xml version="1.0" encoding="UTF-8"?>
<svg id="Layer_1" data-name="Layer 1" xmlns="http://www.w3.org/2000/svg" width="31.93" height="26.94" xmlns:xlink="http://www.w3.org/1999/xlink" viewBox="0 0 31.93 26.94">
  <defs>
    <clipPath id="clippath">
      <rect x=".46" y=".47" width="31" height="26" fill="none"/>
    </clipPath>
  </defs>
  <g clip-path="url(#clippath)">
    <g>
      <path d="M21.41,21.85H1V1h29.93v20.85h-5.11" fill="none" stroke="#a7a86e" stroke-linecap="round" stroke-linejoin="round" stroke-width="2"/>
      <path d="M4.3,5.56h23.33" fill="none" stroke="#a7a86e" stroke-linecap="round" stroke-linejoin="round" stroke-width="2"/>
      <path d="M4.3,9.48h23.33" fill="none" stroke="#a7a86e" stroke-linecap="round" stroke-linejoin="round" stroke-width="2"/>
      <path d="M4.3,13.4h12.03" fill="none" stroke="#a7a86e" stroke-linecap="round" stroke-linejoin="round" stroke-width="2"/>
      <path d="M4.3,17.31h12.03" fill="none" stroke="#a7a86e" stroke-linecap="round" stroke-linejoin="round" stroke-width="2"/>
      <path d="M25.82,20.42v5.52l-2.21-1.62-2.19,1.62v-5.52" fill="none" stroke="#a7a86e" stroke-linecap="round" stroke-linejoin="round" stroke-width="2"/>
      <path d="M23.6,18.02c.88,0,1.6-.71,1.6-1.57s-.71-1.58-1.6-1.58-1.6.71-1.6,1.58.71,1.57,1.6,1.57Z" fill="none" stroke="#a7a86e" stroke-linecap="round" stroke-linejoin="round" stroke-width="2"/>
      <path d="M27.52,17.51h0c.02-.1.08-.18.16-.23h0c.6-.39.6-1.27,0-1.66-.08-.05-.14-.13-.16-.23h0c-.02-.1-.01-.2.03-.28h0c.33-.64-.11-1.4-.82-1.44-.09,0-.18-.04-.25-.11h0c-.07-.07-.11-.16-.11-.26h0c-.03-.72-.79-1.16-1.42-.83-.08.04-.18.05-.27.03h-.01c-.09-.03-.17-.09-.22-.16h0c-.38-.61-1.26-.61-1.64,0-.05.08-.13.14-.23.17h0c-.09.03-.19.02-.28-.03h0c-.63-.33-1.39.11-1.42.82,0,.1-.04.19-.11.26h0c-.07.07-.16.11-.25.11h0c-.71.03-1.15.8-.82,1.43.04.08.05.18.03.27h0c-.02.1-.08.18-.16.23h0c-.6.39-.6,1.27,0,1.65.08.05.14.13.16.23h0c.02.1.01.2-.03.28h0c-.33.64.11,1.4.82,1.44.1,0,.19.04.25.11h0c.07.07.11.16.11.26h0c.03.72.79,1.16,1.42.83.08-.04.18-.05.27-.03h0c.09.03.17.09.22.17h0c.38.61,1.26.61,1.64,0,.05-.08.13-.14.23-.17h0c.09-.03.19-.02.28.03h0c.63.33,1.39-.11,1.42-.82,0-.1.04-.19.11-.26h0c.07-.07.15-.11.25-.11h.01c.71-.03,1.15-.8.82-1.43-.04-.09-.05-.19-.03-.28Z" fill="none" stroke="#a7a86e" stroke-linecap="round" stroke-linejoin="round" stroke-width="2"/>
    </g>
  </g>
</svg>