<?xml version="1.0" encoding="UTF-8"?>
<svg id="Layer_1" data-name="Layer 1" xmlns="http://www.w3.org/2000/svg" width="21.33" height="28" viewBox="0 0 21.33 28">
  <path d="M10.66,8.2c-3.17,0-5.74,2.58-5.74,5.74s2.58,5.74,5.74,5.74,5.74-2.58,5.74-5.74-2.58-5.74-5.74-5.74ZM14.53,12.88l-4.38,4.38c-.16.16-.37.24-.58.24s-.42-.08-.58-.24l-2.19-2.19c-.32-.32-.32-.84,0-1.16.32-.32.84-.32,1.16,0l1.61,1.61,3.79-3.8c.32-.32.84-.32,1.16,0,.32.32.32.84,0,1.16Z" fill="#fff"/>
  <path d="M20.51,4.37c-3.31,0-6.42-1.29-8.76-3.63l-.51-.51c-.32-.32-.84-.32-1.16,0l-.51.51C7.24,3.09,4.13,4.37.82,4.37c-.45,0-.82.37-.82.82v8.18c0,6.58,4.18,12.44,10.4,14.58.09.03.18.04.27.04s.18-.01.27-.04c6.22-2.14,10.4-8,10.4-14.58V5.2c0-.45-.37-.82-.82-.82ZM10.66,21.33c-4.07,0-7.38-3.31-7.38-7.38s3.31-7.38,7.38-7.38,7.38,3.31,7.38,7.38-3.31,7.38-7.38,7.38Z" fill="#fff"/>
</svg>